<svg xmlns="http://www.w3.org/2000/svg" viewBox="0 0 64 64" fill="none">
  <rect width="64" height="64" rx="18" fill="#10081b" />
  <rect x="3" y="3" width="58" height="58" rx="15" stroke="#a855f7" stroke-opacity="0.55" />
  <path
    d="M14 32C18.6 22.8 24.7 18.2 32 18.2C39.3 18.2 45.4 22.8 50 32C45.4 41.2 39.3 45.8 32 45.8C24.7 45.8 18.6 41.2 14 32Z"
    stroke="#f4e4c1"
    stroke-width="3"
  />
  <circle cx="32" cy="32" r="9" fill="#a855f7" />
  <path
    d="M32 20V14M32 50V44M44.7 19.3L40.4 23.6M23.6 40.4L19.3 44.7M50 32H44M20 32H14M44.7 44.7L40.4 40.4M23.6 23.6L19.3 19.3"
    stroke="#f4e4c1"
    stroke-width="2"
    stroke-linecap="round"
  />
</svg>
